<svg width="15" height="15" viewBox="0 0 15 15" fill="none" xmlns="http://www.w3.org/2000/svg">
<path d="M7.5 0C3.3675 0 0 3.3675 0 7.5C0 11.6325 3.3675 15 7.5 15C11.6325 15 15 11.6325 15 7.5C15 3.3675 11.6325 0 7.5 0ZM10.5 8.0625H8.0625V10.5C8.0625 10.8075 7.8075 11.0625 7.5 11.0625C7.1925 11.0625 6.9375 10.8075 6.9375 10.5V8.0625H4.5C4.1925 8.0625 3.9375 7.8075 3.9375 7.5C3.9375 7.1925 4.1925 6.9375 4.5 6.9375H6.9375V4.5C6.9375 4.1925 7.1925 3.9375 7.5 3.9375C7.8075 3.9375 8.0625 4.1925 8.0625 4.5V6.9375H10.5C10.8075 6.9375 11.0625 7.1925 11.0625 7.5C11.0625 7.8075 10.8075 8.0625 10.5 8.0625Z" fill="#3A3E84"/>
</svg>
