<svg width="268" height="132" viewBox="0 0 268 132" fill="none" xmlns="http://www.w3.org/2000/svg">
<path d="M62.5378 100.95L91.8235 129.847C94.6298 132.613 98.4002 132.266 101.23 129.847L126.204 109.136C129.583 106.321 134.474 103.676 134.764 98.7238C135.054 93.7719 134.764 88.6506 134.764 83.6664V66.9396C134.74 65.1292 134.03 63.4001 132.786 62.1199C131.542 60.8396 129.861 60.1093 128.101 60.0843H72.4852L79.1717 66.9396C79.1717 56.9309 79.8223 46.6964 79.1717 36.7119C78.8581 31.8729 73.9667 28.8485 70.7685 25.9129L55.2321 11.6781L44.6811 1.98399C43.4076 0.752326 41.7256 0.0666199 39.9778 0.0666199C38.23 0.0666199 36.548 0.752326 35.2745 1.98399L14.0314 20.6464C10.4413 23.816 6.72569 26.8807 3.22175 30.1631C2.24956 31.0523 1.47683 32.1483 0.957082 33.3751C0.437335 34.602 0.182991 35.9304 0.211664 37.2684C-0.266502 58.802 0.211664 80.4081 0.211664 101.95V125.379C0.211664 134.202 13.5376 134.25 13.5376 125.379V35.9457L11.5857 40.7848L44.6811 11.6781H35.2745L67.8133 41.5187L65.8614 36.6797V66.9396C65.8857 68.7507 66.5953 70.4807 67.8394 71.7622C69.0835 73.0437 70.7641 73.7758 72.5244 73.8029H128.133L121.431 66.9396V98.7883L123.382 93.9493L91.8235 120.169H101.23L71.96 91.2475C65.7674 85.1342 56.3295 94.8203 62.5535 100.926L62.5378 100.95Z" fill="white"/>
<path d="M76.1772 41.7767L102.045 11.6781H92.6387L125.679 44.2285C131.88 50.3337 141.317 40.6476 135.086 34.5505L102.084 1.984C99.6073 -0.435505 95.0922 -0.846821 92.6779 1.984L66.7472 32.0745C61.0797 38.6637 70.4784 48.3981 76.1537 41.7526L76.1772 41.7767Z" fill="white"/>
<path d="M23.9631 54.1727C23.9631 57.6729 25.4055 60.5118 27.1849 60.5118C28.9643 60.5118 30.3988 57.6729 30.3988 54.1727C30.3988 50.6725 28.9564 47.8336 27.1849 47.8336C25.4133 47.8336 23.9631 50.6644 23.9631 54.1727Z" fill="white"/>
<path d="M52.7235 60.5118C54.4985 60.5118 55.9374 57.6737 55.9374 54.1727C55.9374 50.6717 54.4985 47.8336 52.7235 47.8336C50.9486 47.8336 49.5096 50.6717 49.5096 54.1727C49.5096 57.6737 50.9486 60.5118 52.7235 60.5118Z" fill="white"/>
<path d="M21.9485 66.1895C23.9689 67.3853 26.1398 68.289 28.3999 68.8752C33.7595 70.3737 39.3558 70.7576 44.8613 70.0043C49.4023 69.3963 53.8491 68.1929 58.0932 66.4234C58.6602 66.2368 59.1373 65.8359 59.4282 65.3015C59.7192 64.7672 59.8023 64.1392 59.6609 63.5442C59.4947 62.9505 59.1077 62.4481 58.5838 62.1462C58.0599 61.8442 57.4414 61.767 56.8625 61.9312C50.5518 64.6669 43.7314 65.9338 36.8893 65.6411C36.2465 65.6008 35.6115 65.5443 34.9688 65.4798L34.4906 65.3992C34.13 65.3508 33.7694 65.2943 33.4088 65.2298C32.3349 65.0443 31.2689 64.8104 30.2185 64.5282C29.3405 64.2943 28.4704 64.0201 27.616 63.7217L26.5891 63.3265L26.1266 63.1329C26.5577 63.3023 26.401 63.2539 26.1266 63.1329C25.4909 62.8536 24.873 62.533 24.2767 62.1732C21.7839 60.5602 19.495 64.5927 21.9799 66.2057L21.9485 66.1895Z" fill="white"/>
<path d="M162.302 98.9173C163.674 100.725 164.602 102.847 165.006 105.103C165.218 106.305 165.383 107.523 165.492 108.676C165.602 109.829 165.649 111.096 165.649 112.386C165.649 113.547 165.594 114.684 165.492 115.797C165.39 116.91 165.218 118.096 165.006 119.346C164.589 121.716 163.666 123.961 162.302 125.919C161.713 126.709 161.043 127.431 160.303 128.072C159.585 128.705 158.795 129.247 157.951 129.685C156.327 130.588 154.507 131.054 152.66 131.04C150.862 131.049 149.086 130.629 147.471 129.814C145.675 128.95 144.13 127.618 142.987 125.951C142.307 125.053 141.746 124.066 141.317 123.016C140.878 121.945 140.534 120.836 140.291 119.701C140.071 118.499 139.914 117.281 139.805 116.152C139.695 115.023 139.64 113.733 139.64 112.418C139.638 111.265 139.692 110.113 139.805 108.966C139.914 107.878 140.071 106.724 140.291 105.523C140.668 103.162 141.593 100.929 142.987 99.0141C144.115 97.3778 145.621 96.0558 147.369 95.1671C149.016 94.3257 150.829 93.8843 152.668 93.8767C155.421 93.8656 158.09 94.8569 160.201 96.6753C160.971 97.3503 161.674 98.1013 162.302 98.9173ZM152.637 123.79C153.843 123.859 155.038 123.519 156.039 122.822C156.835 122.134 157.448 121.249 157.818 120.249C158.005 119.624 158.16 118.988 158.281 118.346C158.406 117.677 158.5 116.983 158.578 116.249C158.657 115.515 158.759 114.846 158.79 114.225C158.821 113.604 158.845 112.967 158.845 112.321C158.845 111.676 158.845 111.055 158.845 110.45C158.845 109.845 158.798 109.184 158.759 108.458C158.72 107.732 158.594 107.015 158.469 106.329C158.343 105.644 158.187 104.95 158.006 104.264V104.329C157.646 103.255 157.013 102.299 156.172 101.563C155.476 100.957 154.644 100.539 153.751 100.347C152.859 100.155 151.934 100.195 151.06 100.463C150.186 100.732 149.391 101.219 148.747 101.883C148.102 102.547 147.629 103.365 147.369 104.264C146.908 105.615 146.644 107.028 146.585 108.458C146.546 109.184 146.522 109.853 146.507 110.45C146.491 111.047 146.507 111.676 146.507 112.321C146.507 112.967 146.507 113.725 146.507 114.354C146.507 114.983 146.507 115.652 146.585 116.378C146.62 117.727 146.885 119.059 147.369 120.314C147.673 121.303 148.257 122.177 149.047 122.822C150.103 123.552 151.368 123.893 152.637 123.79Z" fill="white"/>
<path d="M177.533 82.4163V122.822C177.533 128.489 176.226 131.325 173.613 131.331H172.586C171.254 131.331 170.587 130.556 170.587 129.008V82.4163H177.533Z" fill="white"/>
<path d="M181.797 94.3606H189.957L196.33 121.04L202.703 94.3606H209.758L198.901 130.895H195.601C193.725 130.895 192.358 129.282 191.501 126.056L181.797 94.3606Z" fill="white"/>
<path d="M218.31 115.604C218.963 118.443 220.178 120.472 221.955 121.693C223.789 122.933 225.945 123.574 228.14 123.532C229.262 123.524 230.378 123.373 231.463 123.08C232.546 122.81 233.597 122.42 234.599 121.919C235.61 121.403 236.433 122.177 237.084 124.241C237.734 126.306 237.68 127.613 236.707 128.169C235.164 129.059 233.522 129.752 231.816 130.234C227.664 131.414 223.236 130.989 219.368 129.04C217.393 127.883 215.766 126.19 214.665 124.145C213.474 121.945 212.715 119.525 212.431 117.023C212.041 114.098 211.923 111.141 212.078 108.192C212.171 106.025 212.619 103.89 213.403 101.877C214.081 100.169 215.08 98.6152 216.342 97.3043C217.53 96.1052 218.948 95.1741 220.505 94.5703C222.18 93.9316 223.955 93.6145 225.741 93.6348C227.61 93.5982 229.461 94.0184 231.142 94.8606C232.702 95.6538 234.068 96.7977 235.14 98.2076C236.255 99.6993 237.09 101.392 237.601 103.2C238.159 105.134 238.439 107.142 238.432 109.16C238.432 110.321 238.432 111.426 238.385 112.483C238.346 113.527 238.254 114.569 238.111 115.604H218.31ZM225.874 100.079C224.233 100.042 222.626 100.557 221.294 101.545C219.963 102.534 218.982 103.941 218.498 105.555C218.16 106.679 218.043 107.86 218.153 109.031H232.812C232.836 107.621 232.68 106.214 232.349 104.845C232.116 103.832 231.664 102.886 231.024 102.079C230.425 101.395 229.663 100.884 228.814 100.595C227.863 100.28 226.873 100.106 225.874 100.079Z" fill="white"/>
<path d="M245.479 126.113C244.752 125.108 244.171 123.999 243.755 122.822C243.315 121.611 242.987 120.361 242.775 119.088C242.525 117.789 242.363 116.474 242.289 115.152C242.218 113.821 242.187 112.555 242.187 111.354V111.297C242.257 109.733 242.409 108.175 242.641 106.627C242.865 105.104 243.219 103.603 243.7 102.143C244.107 100.778 244.698 99.4774 245.456 98.2802C246.173 97.1397 247.1 96.1536 248.183 95.3768C249.822 94.304 251.728 93.7437 253.671 93.7638C254.916 93.6757 256.168 93.7297 257.402 93.9251C258.625 94.1187 259.832 94.3445 261.016 94.6026L261.07 82.2873H267.984V123.854C267.984 128.36 266.113 130.616 262.372 130.621H257.237C251.74 130.642 247.82 129.14 245.479 126.113ZM256.932 123.209H258.554C260.239 123.209 261.086 122.653 261.086 121.532V100.982C260.153 100.764 259.33 100.603 258.633 100.498C257.927 100.388 257.214 100.334 256.5 100.337C255.223 100.288 253.961 100.637 252.879 101.337C251.897 101.991 251.089 102.886 250.527 103.942C249.925 105.078 249.514 106.31 249.312 107.587C249.077 108.937 248.959 110.305 248.959 111.676C248.959 112.668 249.054 113.709 249.148 114.805C249.227 115.86 249.401 116.905 249.665 117.927C249.893 118.899 250.255 119.833 250.739 120.701C251.176 121.484 251.835 122.111 252.628 122.499C253.993 123.063 255.464 123.306 256.932 123.209Z" fill="white"/>
</svg>
