<svg width="current" height="current" viewBox="0 0 74 30" fill="none" xmlns="http://www.w3.org/2000/svg">
<path d="M17.3808 21.4449C19.8097 23.3867 22.2396 25.3279 24.6686 27.2697C25.0117 27.5439 25.3548 27.8181 25.6988 28.093C25.975 28.3134 26.4359 28.2824 26.718 28.093C29.1148 26.4805 31.5124 24.8681 33.9092 23.255C34.4031 22.9231 34.8962 22.5906 35.3902 22.2587C35.6816 22.063 35.8799 21.906 35.8892 21.5842C35.9265 20.3771 35.8892 19.1662 35.8892 17.959C35.8892 16.7595 35.8892 15.56 35.8892 14.3604C35.8892 14.0691 35.5588 13.8221 35.169 13.8221C33.3975 13.8221 31.6251 13.8221 29.8536 13.8221C27.012 13.8221 24.1712 13.8221 21.3297 13.8221C20.679 13.8221 20.0292 13.8221 19.3785 13.8221C19.6183 14.0013 19.8589 14.1812 20.0987 14.3604C20.0987 13.2958 20.0987 12.2305 20.0987 11.1659C20.0987 9.93469 20.1597 8.69336 20.0987 7.46279C20.0817 7.12902 19.825 6.97512 19.5386 6.76296C19.0447 6.39562 18.5499 6.02892 18.056 5.66159C16.5776 4.56339 15.0992 3.46519 13.6216 2.36699C12.6304 1.63106 11.64 0.89449 10.6487 0.158556C10.3683 -0.0498103 9.9125 -0.0428436 9.62953 0.158556C7.54282 1.64626 5.45526 3.13396 3.36856 4.62166C2.38578 5.32212 1.403 6.02322 0.420223 6.72369C0.197404 6.88266 0.0415139 7.02959 0.0271111 7.28039C0.0177917 7.45392 0.0271111 7.62936 0.0271111 7.80289C0.0271111 9.90112 0.0271111 11.9994 0.0271111 14.0976C0.0271111 16.9736 0.0271111 19.8495 0.0271111 22.7255C0.0271111 24.3874 -0.0338889 26.0568 0.0271111 27.7187C0.0279583 27.7447 0.0271111 27.7706 0.0271111 27.796C0.0271111 28.4888 1.46824 28.4901 1.46824 27.796C1.46824 25.4678 1.46824 23.1397 1.46824 20.8116C1.46824 17.1294 1.46824 13.4472 1.46824 9.76496C1.46824 8.92072 1.46824 8.07712 1.46824 7.23289C1.39792 7.35956 1.3276 7.48686 1.25728 7.61352C3.99381 5.66222 6.73118 3.71156 9.46771 1.76026C9.86082 1.47969 10.2548 1.19912 10.6479 0.918556C10.3082 0.918556 9.96842 0.918556 9.62868 0.918556C12.3245 2.92116 15.0196 4.92376 17.7154 6.92636C18.0992 7.21199 18.4838 7.49699 18.8676 7.78262C18.7973 7.65596 18.727 7.52866 18.6567 7.40199C18.6567 9.43119 18.6567 11.4598 18.6567 13.489C18.6567 13.779 18.6567 14.0697 18.6567 14.3598C18.6567 14.6511 18.9871 14.8981 19.3768 14.8981C21.1484 14.8981 22.9207 14.8981 24.6923 14.8981C27.5339 14.8981 30.3746 14.8981 33.2162 14.8981C33.8669 14.8981 34.5167 14.8981 35.1673 14.8981C34.9276 14.7189 34.687 14.539 34.4472 14.3598C34.4472 16.4954 34.4472 18.631 34.4472 20.7666C34.4472 21.0725 34.4472 21.3778 34.4472 21.6837C34.5175 21.557 34.5878 21.4297 34.6582 21.303C32.0402 23.0643 29.4223 24.825 26.8044 26.5863C26.4359 26.8346 26.0665 27.0828 25.6979 27.3311C26.0377 27.3311 26.3774 27.3311 26.7172 27.3311C24.2882 25.3893 21.8583 23.4481 19.4293 21.5063C19.0862 21.2321 18.7431 20.9579 18.3991 20.683C17.7654 20.1757 16.7479 20.9389 17.3808 21.4449Z" fill="#3A3E84"/>
<path d="M19.5971 7.8395C21.7482 5.816 23.8993 3.79314 26.0503 1.76964C26.352 1.4859 26.6536 1.2028 26.9543 0.919069C26.6146 0.919069 26.2749 0.919069 25.9351 0.919069C28.681 3.10914 31.4277 5.29984 34.1735 7.4899C34.5548 7.7939 34.936 8.09854 35.3181 8.40254C35.9535 8.9092 36.971 8.14667 36.3373 7.64064C33.5915 5.45057 30.8448 3.25987 28.0989 1.0698C27.7177 0.765803 27.3364 0.461169 26.9543 0.157169C26.7095 -0.0378977 26.1732 -0.0663977 25.9351 0.157169C23.784 2.18067 21.6329 4.20354 19.4818 6.22704C19.1802 6.51077 18.8786 6.79387 18.5778 7.0776C18.3364 7.30497 18.2805 7.6172 18.5778 7.8395C18.8295 8.02697 19.3539 8.06814 19.5971 7.8395Z" fill="#3A3E84"/>
<path d="M5.6001 11.4238C5.6001 12.2287 6.00846 12.8817 6.5134 12.8817C7.0175 12.8817 7.42671 12.2294 7.42671 11.4238C7.42671 10.6182 7.01835 9.96582 6.5134 9.96582C6.00846 9.96582 5.6001 10.6182 5.6001 11.4238Z" fill="#3A3E84"/>
<path d="M13.7654 12.8817C14.2698 12.8817 14.6787 12.2289 14.6787 11.4238C14.6787 10.6186 14.2698 9.96582 13.7654 9.96582C13.261 9.96582 12.8521 10.6186 12.8521 11.4238C12.8521 12.2289 13.261 12.8817 13.7654 12.8817Z" fill="#3A3E84"/>
<path d="M5.22464 13.8814C5.36189 13.953 5.5127 14.0119 5.66096 14.0689C6.07525 14.2279 6.51157 14.3571 6.95637 14.4616C8.45764 14.8143 10.0589 14.8701 11.611 14.7016C12.87 14.5648 14.0866 14.2709 15.2447 13.8814C15.3659 13.8409 15.3947 13.7092 15.3329 13.63C15.26 13.5369 15.1177 13.523 14.9965 13.5641C13.1834 14.174 11.2018 14.5148 9.21083 14.4084C9.02444 14.3982 8.83974 14.3843 8.6542 14.3666C8.57626 14.359 8.68046 14.3691 8.63471 14.3647C8.61438 14.3628 8.59489 14.3602 8.57456 14.3583C8.53135 14.3539 8.4873 14.3488 8.44409 14.3438C8.35598 14.3336 8.26787 14.3222 8.17975 14.3102C7.86713 14.2671 7.55705 14.212 7.2512 14.1449C7.00212 14.0904 6.75727 14.0277 6.51581 13.9568C6.46328 13.9416 6.4116 13.9251 6.35992 13.9093C6.31248 13.8947 6.40313 13.9232 6.37094 13.9131C6.35992 13.9093 6.34891 13.9061 6.33789 13.9023C6.30994 13.8935 6.28198 13.884 6.25487 13.8751C6.16845 13.8466 6.08288 13.8162 5.99816 13.7852C5.81939 13.7193 5.63724 13.6496 5.47288 13.5641C5.36359 13.5078 5.20007 13.5489 5.13653 13.63C5.06452 13.7212 5.11535 13.8244 5.22464 13.8814Z" fill="#3A3E84"/>
<path d="M41.9374 20.7041C42.5203 20.7041 43.0337 20.8029 43.4785 21.0005C43.9233 21.1981 44.2935 21.4749 44.5909 21.8302C44.8772 22.1956 45.0941 22.6377 45.2424 23.1564C45.3907 23.6751 45.4652 24.2552 45.4652 24.8974C45.4652 25.4807 45.3957 26.026 45.2576 26.5346C45.1196 27.0431 44.9128 27.4852 44.6366 27.8608C44.3503 28.2458 43.9851 28.5498 43.5403 28.7721C43.0955 28.9944 42.566 29.1053 41.9526 29.1053C41.2774 29.1053 40.7123 28.9843 40.2573 28.7424C39.8024 28.5004 39.4423 28.1819 39.1763 27.7867C38.9001 27.3915 38.7061 26.9418 38.5934 26.4383C38.4807 25.9348 38.4248 25.4212 38.4248 24.8974C38.4248 24.2755 38.5019 23.7074 38.6544 23.1937C38.8077 22.6801 39.0323 22.2355 39.3296 21.8606C39.6262 21.4951 39.9913 21.2114 40.4259 21.0087C40.8614 20.8061 41.3655 20.7041 41.9374 20.7041ZM41.9374 27.7867C42.3669 27.7867 42.7067 27.6929 42.9574 27.5055C43.2082 27.318 43.4048 27.0754 43.548 26.7797C43.681 26.4934 43.7674 26.1799 43.8089 25.8385C43.8496 25.4978 43.8707 25.1792 43.8707 24.8828C43.8707 24.537 43.853 24.1862 43.8174 23.8309C43.7809 23.4749 43.6971 23.1545 43.5641 22.8676C43.431 22.5908 43.237 22.3641 42.9812 22.1861C42.7253 22.0081 42.383 21.9195 41.9535 21.9195C41.4833 21.9195 41.1198 22.0132 40.8648 22.2013C40.6089 22.3894 40.42 22.6263 40.2972 22.9125C40.1743 23.2089 40.1006 23.5326 40.0752 23.8828C40.0498 24.2337 40.0371 24.5668 40.0371 24.8828C40.0371 25.1102 40.0371 25.3889 40.0371 25.7201C40.0371 26.0513 40.093 26.3699 40.2057 26.6758C40.3073 26.9823 40.492 27.2439 40.7581 27.4611C41.0224 27.6784 41.4163 27.7867 41.9374 27.7867Z" fill="#3A3E84"/>
<path d="M48.7016 18.0522V27.3724C48.7016 28.5675 48.3899 29.1653 47.7663 29.1653H47.5359C47.2393 29.1653 47.0911 29.0273 47.0911 28.7505V18.0522H48.7016Z" fill="#3A3E84"/>
<path d="M50.2197 20.7935H52.0912L54.0543 27.2243L56.0173 20.7935H57.6736L54.6829 29.0616H53.9009C53.451 29.0616 53.1189 28.7355 52.9037 28.0838L50.2197 20.7935Z" fill="#3A3E84"/>
<path d="M59.4985 25.4605C59.6417 26.2509 59.9713 26.8259 60.4881 27.1863C61.004 27.5473 61.6462 27.7322 62.413 27.7417C62.7298 27.7417 63.0568 27.7075 63.3949 27.6379C63.7321 27.5688 64.0388 27.47 64.315 27.3415C64.5505 27.2528 64.7394 27.3959 64.8826 27.7709C65.036 28.1262 65.0004 28.3637 64.775 28.4821C64.4166 28.6696 63.9947 28.8228 63.5093 28.9413C63.0238 29.0597 62.54 29.1097 62.0597 29.0895C61.2413 29.08 60.5669 28.9413 60.0356 28.6746C59.5036 28.408 59.0842 28.0476 58.7775 27.5929C58.4607 27.1483 58.2429 26.6277 58.126 26.0298C58.0082 25.4326 57.965 24.7974 57.9955 24.126C58.0565 23.0101 58.42 22.1481 59.0842 21.5408C59.7484 20.9334 60.6431 20.6294 61.7682 20.6294C62.3206 20.6294 62.8112 20.7181 63.2407 20.896C63.6702 21.074 64.0328 21.3159 64.3294 21.6218C64.6259 21.9284 64.853 22.2913 65.0114 22.7112C65.1698 23.1311 65.2495 23.5782 65.2495 24.0519C65.2495 24.3091 65.2444 24.551 65.2342 24.7777C65.224 25.0051 65.1935 25.2325 65.1419 25.4592H59.4985V25.4605ZM61.8148 21.8302C61.4158 21.8403 61.0633 21.9094 60.7566 22.0379C60.4499 22.1665 60.1992 22.3394 60.0052 22.5566C59.8001 22.7739 59.6493 23.031 59.5527 23.3274C59.4553 23.6238 59.4223 23.9398 59.4528 24.2755H63.9312C63.9718 23.4363 63.8007 22.8233 63.4169 22.4382C63.034 22.0531 62.5045 21.8505 61.8301 21.8308H61.8148V21.8302Z" fill="#3A3E84"/>
<path d="M73.6091 18.0371V27.6239C73.6091 28.0685 73.4862 28.4092 73.2414 28.6461C72.9957 28.8829 72.6432 29.0014 72.1832 29.0014H70.726C69.9999 29.0014 69.3713 28.8905 68.8392 28.6682C68.3071 28.4459 67.8674 28.1426 67.5201 27.7569C67.1727 27.3718 66.9219 26.9177 66.7686 26.3939C66.6152 25.8702 66.5644 25.3078 66.6152 24.7048V24.6903C66.6457 24.1963 66.7178 23.72 66.8296 23.2602C66.9423 22.801 67.1261 22.3932 67.382 22.0379C67.6378 21.6826 67.9801 21.3982 68.4097 21.186C68.8392 20.9739 69.3857 20.8675 70.0507 20.8675C70.3676 20.8675 70.687 20.8896 71.0098 20.934C71.3317 20.9783 71.6562 21.0302 71.9832 21.0898V18.0371H73.6091ZM71.9832 22.2602C71.3699 22.1417 70.8581 22.0822 70.4498 22.0822C69.9999 22.0822 69.6314 22.1614 69.3458 22.3191C69.0595 22.4774 68.8341 22.6845 68.6706 22.941C68.4969 23.1981 68.3766 23.492 68.3105 23.8226C68.2436 24.1538 68.2106 24.487 68.2106 24.8226C68.2207 25.1684 68.2461 25.5092 68.2877 25.8448C68.3283 26.1805 68.4308 26.482 68.5944 26.7486C68.7477 27.0152 68.9832 27.2299 69.3001 27.3933C69.617 27.5561 70.0617 27.6378 70.6345 27.6378H71.2479C71.5139 27.6378 71.7028 27.5935 71.8155 27.5048C71.9282 27.4161 71.9841 27.2926 71.9841 27.1343V22.2602H71.9832Z" fill="#3A3E84"/>
</svg>
