<svg width="17" height="17" viewBox="0 0 17 17" fill="none" xmlns="http://www.w3.org/2000/svg">
<path d="M16.986 7.9978C16.6971 3.06847 12.2181 -0.730522 7.05932 0.119367C3.50677 0.70579 0.659643 3.5869 0.107215 7.13941C-0.215742 9.19614 0.209219 11.1424 1.1356 12.7487L0.379188 15.5618C0.209211 16.1992 0.795617 16.7771 1.42453 16.5987L4.19518 15.8338C5.45302 16.5732 6.92333 16.9981 8.49563 16.9981C13.289 16.9981 17.2665 12.7742 16.986 7.9978ZM12.6516 11.6608C12.5751 11.8138 12.4816 11.9583 12.3626 12.0943C12.1502 12.3237 11.9207 12.4937 11.6657 12.5957C11.4107 12.7062 11.1303 12.7572 10.8328 12.7572C10.3994 12.7572 9.93194 12.6553 9.4475 12.4428C8.95457 12.2303 8.47013 11.9498 7.98569 11.6013C7.49276 11.2444 7.03382 10.8449 6.59188 10.4115C6.14993 9.96954 5.75896 9.5021 5.40201 9.01766C5.05355 8.53323 4.77311 8.04879 4.56913 7.56435C4.36516 7.07992 4.26319 6.61252 4.26319 6.17058C4.26319 5.88161 4.31417 5.60114 4.41616 5.34617C4.51815 5.08271 4.67964 4.84475 4.90911 4.63228C5.18108 4.36031 5.47852 4.23283 5.79298 4.23283C5.91196 4.23283 6.03092 4.25832 6.14141 4.30931C6.2519 4.3603 6.3539 4.43679 6.4304 4.54728L7.41627 5.94109C7.49276 6.05157 7.55225 6.14506 7.58625 6.23855C7.62874 6.33204 7.64574 6.41703 7.64574 6.50202C7.64574 6.604 7.61174 6.70601 7.55225 6.80795C7.49276 6.90994 7.41627 7.01192 7.31428 7.11391L6.99132 7.45387C6.94033 7.50486 6.92333 7.55585 6.92333 7.62384C6.92333 7.65784 6.93183 7.69183 6.94033 7.72583C6.95733 7.75983 6.96583 7.78532 6.97433 7.81082C7.05082 7.9553 7.1868 8.13378 7.37377 8.35475C7.56925 8.57572 7.77322 8.80519 7.99419 9.02616C8.22366 9.25563 8.44464 9.4596 8.6741 9.65508C8.89508 9.84205 9.08205 9.96954 9.22653 10.046C9.25203 10.0545 9.27753 10.0715 9.30302 10.08C9.33702 10.097 9.37101 10.097 9.41351 10.097C9.49 10.097 9.54099 10.0715 9.59198 10.0205L9.91494 9.69757C10.0254 9.58709 10.1274 9.5106 10.2209 9.4596C10.3229 9.40011 10.4164 9.36612 10.5269 9.36612C10.6119 9.36612 10.6968 9.38311 10.7903 9.42561C10.8838 9.4681 10.9858 9.5191 11.0878 9.59559L12.4986 10.5985C12.6091 10.6749 12.6856 10.7684 12.7366 10.8704C12.7791 10.9809 12.8046 11.0829 12.8046 11.2019C12.7536 11.3464 12.7196 11.5078 12.6516 11.6608Z" fill="#3A3E84"/>
</svg>
