<svg width="26" height="29" viewBox="0 0 26 29" fill="none" xmlns="http://www.w3.org/2000/svg">
<path d="M13.1851 18.2511C15.0383 18.2511 16.5406 16.5721 16.5406 14.5009C16.5406 12.4296 15.0383 10.7506 13.1851 10.7506C11.3318 10.7506 9.82959 12.4296 9.82959 14.5009C9.82959 16.5721 11.3318 18.2511 13.1851 18.2511Z" stroke="#3A3E84" stroke-width="3" stroke-linecap="round" stroke-linejoin="round"/>
<path d="M21.7107 12.495L20.4829 9.18151L22.133 7.00035L19.896 4.50018L17.9551 6.35399L14.9274 4.96238L14.2311 2H12.0452L11.3385 5.00162L8.38038 6.39526L6.474 4.50018L4.237 7.00035L5.86259 9.23657L4.65364 12.5586L2 13.2508V15.751L4.68564 16.5704L5.93237 19.8759L4.237 22.0014L6.474 24.5016L8.47741 22.6768L11.392 24.0169L12.0665 27.0018H14.3035L14.9796 24.0181L17.9443 22.6458C18.4385 23.0406 19.896 24.5016 19.896 24.5016L22.133 22.0014L20.473 19.813L21.7011 16.4985L24.3699 15.7225L24.37 13.2508L21.7107 12.495Z" stroke="#3A3E84" stroke-width="3" stroke-linecap="round" stroke-linejoin="round"/>
</svg>
