<svg width="current" height="current" viewBox="0 0 19 18" fill="none" xmlns="http://www.w3.org/2000/svg"  stroke-width="3">
<path d="M5.72222 5.70588H13.2778M5.72222 9.47059H11.3889M15.1667 1C15.9181 1 16.6388 1.29748 17.1701 1.82699C17.7015 2.35651 18 3.07468 18 3.82353V11.3529C18 12.1018 17.7015 12.82 17.1701 13.3495C16.6388 13.879 15.9181 14.1765 15.1667 14.1765H10.4444L5.72222 17V14.1765H3.83333C3.08189 14.1765 2.36122 13.879 1.82986 13.3495C1.29851 12.82 1 12.1018 1 11.3529V3.82353C1 3.07468 1.29851 2.35651 1.82986 1.82699C2.36122 1.29748 3.08189 1 3.83333 1H15.1667Z" stroke="white" stroke-width="1.3" stroke-linecap="round" stroke-linejoin="round"/>
</svg>
