<svg width="current" height="current" viewBox="0 0 18 17" fill="none" xmlns="http://www.w3.org/2000/svg">
<path d="M8.30769 1.25926V0.62963C8.30769 0.462641 8.38063 0.302493 8.51046 0.184414C8.6403 0.0663358 8.81639 0 9 0C9.18361 0 9.3597 0.0663358 9.48954 0.184414C9.61937 0.302493 9.69231 0.462641 9.69231 0.62963V1.25926C9.69231 1.42625 9.61937 1.5864 9.48954 1.70447C9.3597 1.82255 9.18361 1.88889 9 1.88889C8.81639 1.88889 8.6403 1.82255 8.51046 1.70447C8.38063 1.5864 8.30769 1.42625 8.30769 1.25926ZM15.2308 3.77778C15.3217 3.77784 15.4118 3.76161 15.4958 3.73001C15.5799 3.69841 15.6562 3.65206 15.7206 3.59361L16.4129 2.96398C16.5428 2.84584 16.6158 2.6856 16.6158 2.51852C16.6158 2.35144 16.5428 2.1912 16.4129 2.07306C16.283 1.95491 16.1068 1.88854 15.9231 1.88854C15.7394 1.88854 15.5632 1.95491 15.4333 2.07306L14.741 2.70269C14.644 2.79074 14.578 2.90298 14.5512 3.02518C14.5245 3.14738 14.5382 3.27405 14.5906 3.38916C14.6431 3.50427 14.7319 3.60265 14.8459 3.67182C14.9598 3.741 15.0938 3.77788 15.2308 3.77778ZM2.27942 3.59361C2.40933 3.71176 2.58552 3.77813 2.76923 3.77813C2.95294 3.77813 3.12913 3.71176 3.25904 3.59361C3.38894 3.47547 3.46192 3.31523 3.46192 3.14815C3.46192 2.98107 3.38894 2.82083 3.25904 2.70269L2.56673 2.07306C2.43683 1.95491 2.26064 1.88854 2.07692 1.88854C1.89321 1.88854 1.71702 1.95491 1.58712 2.07306C1.45721 2.1912 1.38423 2.35144 1.38423 2.51852C1.38423 2.6856 1.45721 2.84584 1.58712 2.96398L2.27942 3.59361ZM9.80827 5.67532C9.71821 5.66084 9.62589 5.66273 9.53664 5.68088C9.44739 5.69903 9.36298 5.73308 9.28828 5.78107C9.21358 5.82906 9.15007 5.89003 9.10143 5.96047C9.05279 6.0309 9.01998 6.10941 9.00489 6.19144C8.9898 6.27348 8.99273 6.35742 9.01351 6.43842C9.0343 6.51942 9.07252 6.59587 9.12598 6.66335C9.17943 6.73084 9.24706 6.78803 9.32496 6.83161C9.40285 6.87519 9.48947 6.90431 9.57981 6.91727C11.2214 7.16833 12.4615 8.52519 12.4615 10.0741C12.4615 10.2411 12.5345 10.4012 12.6643 10.5193C12.7941 10.6374 12.9702 10.7037 13.1538 10.7037C13.3375 10.7037 13.5135 10.6374 13.6434 10.5193C13.7732 10.4012 13.8462 10.2411 13.8462 10.0741C13.8462 7.91759 12.1093 6.02634 9.80654 5.67532H9.80827ZM18 13.8519V15.7407C18 16.0747 17.8541 16.395 17.5945 16.6312C17.3348 16.8673 16.9826 17 16.6154 17H1.38462C1.01739 17 0.66521 16.8673 0.405544 16.6312C0.145879 16.395 0 16.0747 0 15.7407V13.8519C0 13.5179 0.145879 13.1976 0.405544 12.9614C0.66521 12.7253 1.01739 12.5926 1.38462 12.5926V10.0741C1.38459 9.16009 1.58347 8.25515 1.9698 7.4114C2.35613 6.56765 2.92226 5.80179 3.63557 5.15797C4.34888 4.51414 5.19525 4.00508 6.12589 3.66014C7.05653 3.3152 8.05305 3.14119 9.05798 3.14815C13.2248 3.17648 16.6154 6.31912 16.6154 10.1528V12.5926C16.9826 12.5926 17.3348 12.7253 17.5945 12.9614C17.8541 13.1976 18 13.5179 18 13.8519ZM2.76923 12.5926H15.2308V10.1528C15.2308 7.00463 12.4572 4.43023 9.0476 4.40741H9C7.3475 4.40741 5.76268 5.00443 4.59418 6.06714C3.42569 7.12984 2.76923 8.57118 2.76923 10.0741V12.5926ZM16.6154 15.7407V13.8519H1.38462V15.7407H16.6154Z" fill="white"/>
</svg>
